<svg id="圖層_1" data-name="圖層 1" xmlns="http://www.w3.org/2000/svg" viewBox="0 0 168.79 155.84"><defs><style>.cls-1{fill:#dce0e0;}</style></defs><title>工作區域 8</title><path class="cls-1" d="M30.16,20.28l2.5,11.5L24.29,33.6c-5.4,1.17-7.31,4.71-5.95,11l6,27.82C26.3,81.19,23.48,88,16,92.79c8.84,1.64,14.22,6.57,16.07,15.09l6.07,28c1.3,6,4.53,8.53,9.93,7.36l8.38-1.82,2.5,11.5L48,155.27c-6.24,1.35-11.53.27-15.81-3-3.92-3-6.59-7.79-7.95-14l-5.8-26.69c-.89-4.12-2.4-6.91-4.5-8.39-2.48-1.84-6.28-2.2-11.45-1.38L0,90.17c5.05-1.39,8.32-3.44,9.85-6q1.9-3.54.61-9.5L4.69,48.12C3.3,41.73,3.75,36.28,6.07,31.91,8.59,27.05,13,24,19.23,22.65Z"/><path class="cls-1" d="M120.75.6c6.25-1.36,11.51-.42,15.81,3,3.92,3,6.6,7.78,8,14.17l5.76,26.55c.87,4,2.4,6.92,4.67,8.5s6.11,2.1,11.28,1.27l2.53,11.64c-5,1.4-8.35,3.3-9.84,6q-2,3.31-.62,9.5l5.8,26.69c1.36,6.25.91,11.7-1.41,16.07-2.55,4.71-6.91,7.89-13.16,9.25l-10.93,2.37-2.5-11.5,8.38-1.82c5.25-1.14,7.27-4.85,6-10.81l-6.07-28c-1.85-8.52.86-15.2,8.35-20.4-8.88-1.19-14.15-6.29-16.07-15.1l-6-27.82c-1.36-6.25-4.7-8.65-10-7.5l-8.37,1.82L109.82,3Z"/></svg>