<svg id="圖層_1" data-name="圖層 1" xmlns="http://www.w3.org/2000/svg" viewBox="0 0 588 472"><defs><style>.cls-1{font-size:21.42px;fill:#525b59;font-family:PingFangTC-Medium-B5pc-H, PingFang TC;}.cls-2{fill:none;stroke:#759b92;stroke-miterlimit:10;stroke-width:2px;}.cls-3{fill:#95bab1;opacity:0.7;}</style></defs><title>工作區域 6</title><text class="cls-1" transform="translate(272.96 43.42)">前端程式</text><text class="cls-1" transform="translate(35.96 146.42)">前端排版</text><text class="cls-1" transform="translate(35.96 337.42)">伺服器</text><text class="cls-1" transform="translate(272.96 428.42)">其他</text><text class="cls-1" transform="translate(477.96 337.42)">資料庫</text><text class="cls-1" transform="translate(477.96 146.42)">網頁後端</text><polygon class="cls-2" points="439 313.72 439 146.28 294 62.57 149 146.28 149 313.72 294 397.43 439 313.72"/><polygon class="cls-2" points="169 302.17 169 157.83 294 85.66 419 157.83 419 302.17 294 374.34 169 302.17"/><polygon class="cls-2" points="189 290.62 189 169.38 294 108.76 399 169.38 399 290.62 294 351.24 189 290.62"/><polygon class="cls-2" points="209 279.07 209 180.93 294 131.85 379 180.93 379 279.07 294 328.15 209 279.07"/><polygon class="cls-2" points="229 267.53 229 192.47 294 154.94 359 192.47 359 267.53 294 305.06 229 267.53"/><polygon class="cls-3" points="169 155 294 86 399 169 399 291 294 328 189 291 169 155"/></svg>